<?xml version="1.0" encoding="utf-8"?>
<!-- Generator: Adobe Illustrator 16.0.0, SVG Export Plug-In . SVG Version: 6.00 Build 0)  -->
<!DOCTYPE svg PUBLIC "-//W3C//DTD SVG 1.1//EN" "http://www.w3.org/Graphics/SVG/1.1/DTD/svg11.dtd">
<svg version="1.1" id="Layer_1" xmlns="http://www.w3.org/2000/svg" xmlns:xlink="http://www.w3.org/1999/xlink" x="0px" y="0px"
	 width="92px" height="78px" viewBox="0 0 92 78" enable-background="new 0 0 92 78" xml:space="preserve">
<g>
	<path fill="#FFFFFF" d="M91.508,25.359L77.958,0.875C77.691,0.394,77.023,0,76.474,0H54v13.059c1-1.185,1.778-2.096,2.973-2.734
		c1.193-0.638,2.514-0.957,4.063-0.957c3.755,0,6.829,1.417,8.798,4.252C71.803,16.454,73,20.232,73,24.953v0.574
		c0,4.412-1.223,7.939-3.191,10.582c-1.969,2.644-4.932,3.965-8.65,3.965c-1.732,0-3.296-0.36-4.571-1.08
		c-1.276-0.72-2.382-1.514-3.257-2.881L52.727,40H46V0c0,0-0.755,0-1,0H15.542c-0.55,0-1.218,0.394-1.484,0.875L0.5,25.359
		c-0.267,0.481-0.201,1.225,0.146,1.65l41.723,50.588C42.716,78.024,43,77.924,43,77.374V58.94c-1.792-1.038-3-2.971-3-5.19
		c0-3.313,2.687-6,6-6s6,2.687,6,6c0,2.22-1.208,4.152-3,5.19v18.435c0,0.55,0.284,0.65,0.631,0.224l41.73-50.589
		C91.708,26.584,91.774,25.841,91.508,25.359z M40.593,37.545c-2.288,1.687-5.3,2.529-9.037,2.529c-2.279,0-4.371-0.333-6.275-0.998
		c-1.905-0.665-3.596-1.405-5.072-2.645L20.126,30h5.578l1.094,3.643c0.474,0.401,1.121,0.591,1.941,0.782s1.677,0.234,2.57,0.234
		c1.622,0,2.857-0.318,3.705-0.902c0.848-0.583,1.271-1.389,1.271-2.392c0-0.875-0.429-1.638-1.285-2.276
		c-0.857-0.638-2.434-1.207-4.73-1.699c-3.482-0.711-6.111-1.766-7.889-3.16s-2.666-3.295-2.666-5.702
		c0-2.479,1.021-4.617,3.062-6.413c2.042-1.795,4.949-2.694,8.723-2.694c2.297,0,4.471,0.31,6.521,0.93
		c2.051,0.62,3.659,1.37,4.826,2.336L42.931,20h-5.359l-0.848-3.648c-0.547-0.438-1.235-0.78-2.064-1.072
		c-0.83-0.292-1.746-0.427-2.748-0.427c-1.404,0-2.516,0.32-3.336,0.949s-1.23,1.42-1.23,2.368c0,0.894,0.392,1.638,1.176,2.23
		c0.784,0.593,2.352,1.118,4.703,1.573c3.664,0.729,6.38,1.8,8.148,3.213c1.768,1.413,2.652,3.359,2.652,5.838
		C44.024,33.685,42.88,35.859,40.593,37.545z"/>
	<path fill="#FFFFFF" d="M55.934,33.156c0.865,0.474,1.876,0.711,3.134,0.711c2.06,0,3.69-0.725,4.511-2.174S65,28.189,65,25.527
		v-0.574c0-2.88-0.641-5.163-1.488-6.85c-0.848-1.686-2.401-2.529-4.442-2.529c-1.24,0-2.239,0.26-3.095,0.779
		C55.117,16.873,54,17.616,54,18.582v12.496C54,31.99,55.067,32.683,55.934,33.156z"/>
</g>
</svg>
